<?xml version="1.0" encoding="UTF-8" standalone="no"?>
<svg
   xmlns:dc="http://purl.org/dc/elements/1.1/"
   xmlns:cc="http://creativecommons.org/ns#"
   xmlns:rdf="http://www.w3.org/1999/02/22-rdf-syntax-ns#"
   xmlns:svg="http://www.w3.org/2000/svg"
   xmlns="http://www.w3.org/2000/svg"
   xmlns:sodipodi="http://sodipodi.sourceforge.net/DTD/sodipodi-0.dtd"
   xmlns:inkscape="http://www.inkscape.org/namespaces/inkscape"
   x="0"
    y="0"
    width="100%"
    height="100%"
    viewBox="0 0 200 200"
    preserveAspectRatio="none"
   id="svg2"
   version="1.1"
   inkscape:version="0.91 r13725"
   sodipodi:docname="itchio.svg">
  <metadata
     id="metadata16">
    <rdf:RDF>
      <cc:Work
         rdf:about="">
        <dc:format>image/svg+xml</dc:format>
        <dc:type
           rdf:resource="http://purl.org/dc/dcmitype/StillImage" />
        <dc:title></dc:title>
      </cc:Work>
    </rdf:RDF>
  </metadata>
  <defs
     id="defs14" />
  <sodipodi:namedview
     pagecolor="#ff02ff"
     bordercolor="#666666"
     borderopacity="1"
     objecttolerance="10"
     gridtolerance="10"
     guidetolerance="10"
     inkscape:pageopacity="0"
     inkscape:pageshadow="2"
     inkscape:window-width="1920"
     inkscape:window-height="1027"
     id="namedview12"
     showgrid="false"
     inkscape:zoom="1.5893067"
     inkscape:cx="125.87024"
     inkscape:cy="147.09277"
     inkscape:window-x="-8"
     inkscape:window-y="-8"
     inkscape:window-maximized="1"
     inkscape:current-layer="svg2" />
  <path
     style="opacity:1;stroke:none;stroke-width:2;stroke-miterlimit:4;stroke-dasharray:none;stroke-opacity:1"
     d="M 29.257813,2e-6 C 13.048858,2e-6 2.9999999e-7,13.050813 2.9999999e-7,29.259768 l 0,141.482422 C 2.9999999e-7,186.95114 13.048858,200 29.257813,200 l 141.484377,0 C 186.95115,200 200,186.95114 200,170.74219 L 200,29.259768 C 200,13.050813 186.95115,2e-6 170.74219,2e-6 l -141.484377,0 z m 94.253907,25.470704 c 13.33543,0.0051 26.08607,0.01757 36.37695,0.04492 l 23.57813,25.464844 0,7.544922 c 0,9.211479 -7.61766,16.976562 -16.83008,16.976562 -9.21054,0 -17.12305,-7.765083 -17.12305,-16.976562 0,9.211479 -7.145,16.976562 -16.35742,16.976562 -9.21054,0 -16.65234,-7.765083 -16.65234,-16.976562 0,9.211479 -7.64689,16.976562 -16.857425,16.976562 -9.212422,0 -17.095703,-7.765083 -17.095703,-16.976562 0,9.211479 -7.174296,16.976562 -16.386719,16.976562 -9.212422,0 -16.621094,-7.765083 -16.621094,-16.976562 -9.43e-4,9.211479 -7.677193,16.976562 -16.888671,16.976562 -7.67136,0 -16.121094,-8.078867 -16.121094,-17.271484 l 0,-7.25 21.691406,-25.464843 c 0,0 45.280818,-0.06031 85.28711,-0.04492 z M 82.91211,71.171877 c 0.876161,1.561811 1.951936,2.989788 3.212891,4.244141 3.477293,3.459374 8.270379,5.599609 13.527343,5.599609 5.256966,0 10.049106,-2.144951 13.527346,-5.599609 1.26378,-1.258126 2.33578,-2.678557 3.21289,-4.244141 0.87616,1.561811 1.98022,2.987901 3.24023,4.244141 3.4773,3.459374 8.27139,5.601562 13.5293,5.601562 5.25602,0 10.01981,-2.144951 13.49805,-5.599609 1.26095,-1.258126 2.36508,-2.678557 3.24218,-4.244141 0.87617,1.562755 1.95289,2.987902 3.21289,4.244141 3.47824,3.459374 8.26755,5.599609 13.52735,5.599609 2.46155,0 4.28589,-0.47359 6.45508,-1.326171 l 0,94.843751 -145.242191,0 0,-94.312501 c 0,-10e-7 3.45225,0.796874 4.804688,0.796874 5.25508,10e-7 10.050993,-2.144074 13.527344,-5.601562 1.262841,-1.256239 2.484224,-2.594573 3.361328,-4.160156 0.877104,1.561811 1.833738,2.905803 3.09375,4.160156 3.477293,3.459374 8.270379,5.601562 13.527343,5.601562 5.253194,10e-7 10.021831,-2.143198 13.501954,-5.603515 1.264727,-1.257183 2.36313,-2.678557 3.240234,-4.244141 z M 70.437501,88.681648 c -10.065006,0 -21.12441,10.33252 -24.578125,22.960932 l -8.253907,30.14844 C 34.150811,154.41754 39.565855,164.75 49.63086,164.75 c 8.835173,0 18.438657,-7.95974 22.988281,-18.44726 l 55.496089,0 c 4.55057,10.48752 14.15406,18.44726 22.98829,18.44726 10.06312,0 15.48005,-10.3334 12.02539,-22.95898 l -8.25196,-30.14844 c -3.45371,-12.626522 -14.51696,-22.958982 -24.58007,-22.958982 -6.3359,0 -10.81433,4.10009 -12.40821,10.2832 l -35.011716,0 c -1.596707,-6.18311 -6.104499,-10.28515 -12.439453,-10.28515 z m 29.355468,14.029292 11.822261,12.68555 11.82618,12.68359 -12.42383,0 0,13.07812 -23.224611,0 0,-13.07812 -11.65039,0 11.826172,-12.68359 11.824218,-12.68555 z"
     id="rect3368"
     inkscape:connector-curvature="0" />
  <g
     id="g4"
     style="fill:#ffffff"
     transform="matrix(0.94312269,0,0,0.94312269,-3.025816,18.221653)" />
</svg>
